<svg xmlns="http://www.w3.org/2000/svg" viewBox="0 0 338.49 345.03"><defs><style>.cls-1{fill:#0a0a0a;}</style></defs><g id="Layer_2" data-name="Layer 2"><g id="Layer_1-2" data-name="Layer 1"><path class="cls-1" d="M208.18,211.85c1.68.64,3.34,1.35,5,1.9a17.37,17.37,0,0,1,7.34,4.86,1.85,1.85,0,0,0,1.89.65,3.44,3.44,0,0,1,1-3.34,6.32,6.32,0,0,1,5.29-1.71,3.81,3.81,0,0,0,2.21-.47,15.67,15.67,0,0,1,6-2.07,7.76,7.76,0,0,1,4.58,1.14,2.42,2.42,0,0,0,1.78.36c4.32-.63,8.18,0,11,3.66a1.89,1.89,0,0,0,1.08.48c1.42.23,2.92.08,4.23.8a5.31,5.31,0,0,1,1.48,1.12c.63.74,1,1.67,1.71,2.37a6.24,6.24,0,0,1,1.49,4.13,2.58,2.58,0,0,0,.63,1.32,6.35,6.35,0,0,1,1.09,2.5,23,23,0,0,1,0,7.08,3.37,3.37,0,0,1-1.68,2.47c-1.42.92-1.5,1.2-1,2.66a5.3,5.3,0,0,1-.45,3.71,50.27,50.27,0,0,1-2.39,5.54,4.68,4.68,0,0,1-3.6,2.73c-.56.08-1.1.34-1.67.4-.74.09-1.54.53-2.23-.21-.11-.12-.39-.11-.6-.13-1.79-.18-3.58-.43-5.37-.52a19.87,19.87,0,0,0-3.53.21c-1.22.17-2.39.62-3.61.73a13,13,0,0,1-3.28-.23,5.61,5.61,0,0,0-2.12.15c-1.73.33-3.49.6-5.27-.42a11.31,11.31,0,0,1-3.16-2.17c-.28-.34-.39-.8-.64-1.17a5.37,5.37,0,0,0-.86-.75c-.1.61-.2,1-.23,1.35-.1,1.21-.1,2.44-.31,3.64a4.94,4.94,0,0,1-.95,1.92c-.82,1.11-1.44,2.46-2.93,2.93a10.37,10.37,0,0,1-2.47.47c-1.23.08-2.47,0-3.67,0a17.29,17.29,0,0,1-4.85,4,17.1,17.1,0,0,1-5.08,1.79,2.31,2.31,0,0,1-1.43,0c-1-.54-2.22-.34-3.32-.86a14.23,14.23,0,0,1-3.27-1.84,5.2,5.2,0,0,0-2.82-.73c-2.44-.12-5.32-2-6-4.08a9.94,9.94,0,0,0-3.13-4.66,6.36,6.36,0,0,1-1.91-3.57c-.85-4.09-1-3.28-.13-7.65a7.25,7.25,0,0,1-2.65-5.17c0-.61-.27-1.21-.31-1.82a8.53,8.53,0,0,1,6.59-8.42,2.49,2.49,0,0,1,1.43,0,2.26,2.26,0,0,0,2.43-.32,7.16,7.16,0,0,1,4.28-1.13,2.08,2.08,0,0,0-1.31-1.52,12.51,12.51,0,0,1-2.42-1.47,6.23,6.23,0,0,0-3.43-1.19,2.58,2.58,0,0,0-2.44.89c-.93,1.25-2.66,1.74-3.32,3.24-1.27.45-1.85,1.64-2.84,2.41s-1.91,1.63-2.92,2.39a12.81,12.81,0,0,0-1.75,2c-1.43,1.63-2.61,3.46-4.38,4.83-.15.12-.19.36-.32.52-1.72,2.1-2.94,4.51-4.57,6.67-1.4,1.87-2.21,4.09-3.52,6-1.16,1.69-2,3.53-3.22,5.19a9.62,9.62,0,0,0-1.9,5.12,30,30,0,0,0,0,3.42c.1,1.86.15,3.72.22,5.58,0,.16,0,.34,0,.46a6.44,6.44,0,0,1,.57,3.54,7.45,7.45,0,0,0,.48,2.09,12.4,12.4,0,0,1,.53,3.24,5.12,5.12,0,0,0,.6,1.66c.24.54.56,1.06.94,1.78a16,16,0,0,1,1.72-.18c1.37,0,2.74,0,4.1.05a40.91,40.91,0,0,0,4.81.16c3.68-.33,7.34.05,11-.07,1.28-.05,2.56-.06,3.84-.07.58,0,1.16.06,1.74,0,1.32,0,2.65,0,4,0,1.64,0,3.27,0,4.9,0s3.23-.06,4.85-.1c.58,0,1.17-.07,1.75-.07l6.33,0c.75,0,1.49.08,2.23,0,3.45-.19,6.9.33,10.36-.1a31.73,31.73,0,0,1,3.63.14c2.12,0,4.25-.06,6.38-.11.16,0,.33-.14.46-.11,2.63.53,5.31-.31,7.94.24a6.86,6.86,0,0,0,1.27-.07c.95,0,1.9,0,2.85.1a3,3,0,0,1,1.48.45l2.76,2.25-.23,1c1.29.7,1.23,1.79,1.2,3.12a11.34,11.34,0,0,1-.42,3.8c-.25.69-.32,1.44-.57,2.13-.95,2.52-1.94,5-2.91,7.54a29.44,29.44,0,0,1-1.24,3,21.45,21.45,0,0,1-1.79,2.67,8.11,8.11,0,0,1-1.11,1.08c-.22.2-.46.52-.7.53-2.14.09-3.8,1.47-5.78,2a1.72,1.72,0,0,1-1.15.1,1.28,1.28,0,0,0-1.72,1.07c-.11.65-.11,1.32-.23,2-.22,1.24-.48,2.48-.75,3.71-.17.75.26,1.66-.68,2.23-.15.09.16.73,0,1-.4.69-.34,1.48-.81,2.22a17,17,0,0,0-1.35,4.16c-.16.53-.41,1-.57,1.55s-.26,1.07-.41,1.59a19,19,0,0,1-.8,2.59c-.7,1.54-1.52,3-2.29,4.55a.52.52,0,0,1-.17.26c-1.82,1-2,2.94-2.92,4.46a7.33,7.33,0,0,0-.67,1,1.09,1.09,0,0,1-1.46.55c-2.2-.83-4.45-.56-6.71-.48a12.19,12.19,0,0,1-2.49,0c-2-.35-4,.19-6.08.1-3.06-.15-6.14-.13-9.21-.14-1.9,0-3.81.07-5.72.1a5.19,5.19,0,0,1-1.12-.11,14,14,0,0,0-4.65,0,1.91,1.91,0,0,1-.47.07c-3.14-.45-6.29.15-9.45-.14a47.05,47.05,0,0,0-4.74.13c-1.49,0-3,0-4.46-.06-2.13-.06-4.26-.18-6.4-.2-1,0-2.07.12-3.11.19-.1,0-.25.07-.31,0-1.11-.78-2.2,0-3.3,0-1.79,0-3.59-.07-5.38-.07-1.17,0-2.34.07-3.52.1s-2.54.08-3.81.07c-1.85,0-3.71,0-5.54-.12-2.2-.2-4.39.29-6.57,0a17.2,17.2,0,0,0-4.7.07l-.91.17-1.85.41c-.8-1.64-1.51-3.12-2.24-4.59a2,2,0,0,0-.62-.88c-1.69-.95-1.94-2.76-2.78-4.2a18.13,18.13,0,0,1-1.21-3.1,6.41,6.41,0,0,1-.08-.9c-.1-.49-.08-1.17-.4-1.41-.73-.53-.62-1.23-.8-1.9a21.52,21.52,0,0,0-1.21-3.9,5.81,5.81,0,0,1-.62-2.71c0-.2,0-.5-.11-.57-.85-.53-.52-1.35-.66-2.07-.23-1.24-.57-2.46-.83-3.7-.14-.7-.19-1.42-.31-2.12s-1-1.44-1.61-1.12c-1,.53-1.61-.18-2.34-.38a17.93,17.93,0,0,1-2.74-1.2,1.76,1.76,0,0,0-.58-.26c-2.51-.09-3.18-2.16-4.3-3.7-1.51-2.07-2.12-4.52-3-6.86-.42-1.14-1.09-2.2-1.49-3.35a30.1,30.1,0,0,1-1.36-4.8,14.15,14.15,0,0,1,.08-3.95c.06-.52.61-1,1-1.63l-.22-.91,2.72-2.25c.4-.06.89-.16,1.39-.23a7.54,7.54,0,0,1,2.36-.28,16.07,16.07,0,0,0,4.75-.07c.22,0,.43,0,.65,0l7.79.17c1.85,0,3.7.11,5.55.09,3.08,0,6.17-.27,9.23-.15,2.32.1,4.64-.31,7,.16a17.65,17.65,0,0,0,3.32-.07c2.36,0,4.72.12,7.08.12,1.38,0,2.76-.19,4.15-.2a21,21,0,0,1,3,.18c1.51.19,1.8-.19,1.54-1.58s-1-2.49-.59-3.89c.1-.35-.35-.81-.43-1.24-.24-1.4-.41-2.82-.63-4.22a27,27,0,0,0-.54-2.85,2,2,0,0,0-.74-1.11,4,4,0,0,1-1.74-2.66c-.7-3-1.38-6-2.13-9A31.32,31.32,0,0,0,139,247.7a18.17,18.17,0,0,0-2.87-4.27c-.4-.38-.8-.78-1.42-1.39-.44,1.3-.79,2.35-1.16,3.39a13.68,13.68,0,0,1-3.81,5.47c-1.57,1.43-3.41,2.46-5,3.78a25.48,25.48,0,0,1-3.53,2.63c-.68.39-1,1.28-1.91,1.55-1.8.55-3.46,1.48-5.44,1.54a20.79,20.79,0,0,0-2.82.71,57.17,57.17,0,0,1-6.85,1,27,27,0,0,1-6.68-.72,9.51,9.51,0,0,0-2.82-.07c-1.13.12-2.14.31-2.6-1.07-.2-.59-1-.78-1.18-1.57-.12-.59-.15-1.06.32-1.34,1.92-1.12,2.27-3.17,3.23-4.86.8-1.4,1.51-2.84,2.35-4.21a89.59,89.59,0,0,1,4.87-7.58,68.82,68.82,0,0,1,5.88-6.46,19.73,19.73,0,0,1,3.67-2.94A14.86,14.86,0,0,1,117,229a2.59,2.59,0,0,0,1.06-.27,3.85,3.85,0,0,1,2.93-.52c.92.15,2-.45,2.77.38,1.58-.09,2.87.68,4.25,1.26a8.24,8.24,0,0,1,3.41,2.46c.77,1,2,1.18,3,1.59a13.28,13.28,0,0,1,3.93,2.87c.5.44.79,1.11,1.27,1.58,2.43,2.39,3.64,5.43,5,8.39.72,1.55,1.4,3.11,2.33,4.7a14.59,14.59,0,0,0,.32-2.07,21.19,21.19,0,0,1,1-6.55,4.77,4.77,0,0,0,0-2.85c-.6-2.36-1.24-4.71-1.87-7.06a53.39,53.39,0,0,1-2-10.25,11.87,11.87,0,0,0-.72-2.29c-.22-.73-.37-1.48-.58-2.22-.08-.31-.22-.62-.35-1-1.6.65-3,1.31-4.51,1.8a12.65,12.65,0,0,0-3.65,2.17c-.47.35-.89.77-1.57.58a.69.69,0,0,0-.47,0c-1.7,1.15-3.71.78-5.58,1.09-1.19.19-2.35.56-3.53.82a3.28,3.28,0,0,1-1.4.16c-1.36-.35-2.84.56-4.13-.38-1.41.33-2.67-.6-4-.5a11.83,11.83,0,0,1-4-.7c-1.09-.29-2.1-.88-3.17-1.24a50.05,50.05,0,0,1-11.27-6.27,13.38,13.38,0,0,1-2.11-1.3c-1-1-2.51-1.33-3.18-2.63-1.13-.25-1.62-1.44-2.76-1.68a1.11,1.11,0,0,1-.6-.47,4.82,4.82,0,0,0-1.88-1.36c-.84-.49-1.58-1.12-2.41-1.63-1.47-.9-3-1.75-4.46-2.63-.49-.29-1-.6-1.47-.9-1.5-.92-3.31-.69-4.93-1.2s-3.38.08-5,.4c-.79.15-1.45.85-2.23,1.16-1.34.53-2.56-.22-3.81-.53-.15,0-.34-.58-.27-.64.62-.55.13-1.17.13-1.73a3.07,3.07,0,0,1,.64-1.76,21.49,21.49,0,0,1,4.07-4.35,59.46,59.46,0,0,0,4.33-4.51,14.65,14.65,0,0,1,4.77-3.57,32.63,32.63,0,0,1,5.58-1.86c2.16-.54,4.14-1.5,6.24-2.15,1.58-.49,3-1.34,4.61-1.79a84.15,84.15,0,0,1,8.18-2.18c1.59-.29,3.21-.55,4.81-.91a25.67,25.67,0,0,1,10.19.24c1.79.46,3.69.52,5.51.92a40.76,40.76,0,0,1,4.44,1.39c2,.69,3.8,1.71,5.71,2.49,1.43.59,2.59,1.56,4,2a1.57,1.57,0,0,1,.44.18c1.65,1.37,3.79,2.1,5.36,3.51,1.13,1,2.67,1.81,3.06,3.47,1.61,1.22,2.18,3.09,3.13,4.7a16.14,16.14,0,0,1,2.34,6.18c.2,1.55.84,3.06,1.2,4.6a47.19,47.19,0,0,0,1.16,5.2c.89,2.42.36,5,1.22,7.41.18.48.24,1,.39,1.47a17.45,17.45,0,0,1,.55,4.82,15.61,15.61,0,0,0,1.13,6c.67-1.11,1.35-2.1,1.87-3.16.87-1.76,1.6-3.58,2.46-5.34.67-1.4,1.43-2.76,2.18-4.13a40,40,0,0,1,2.36-4.13c1-1.38,1.1-3,1.76-4.46a39.16,39.16,0,0,0,1.45-4.53c.6-1.86,1.35-3.67,1.8-5.55a26.21,26.21,0,0,0,.41-12.23c-.62-2.6-1.4-5.17-1.89-7.8a9.61,9.61,0,0,0-1.36-4c-.55-.77-1.09-1.55-1.6-2.28-1.62,1-3.1,1.89-4.54,2.83-2.14,1.4-4.23,2.89-6.4,4.26A19.33,19.33,0,0,1,149,182a1.83,1.83,0,0,1-1.26,0,28.58,28.58,0,0,1-3.13-1.57,1.62,1.62,0,0,1-.66-1c-.33-1.4-.59-2.81-.87-4.22a1.93,1.93,0,0,0-.1-.6c-.72-1.28-1.43-2.57-2.22-3.82a1.14,1.14,0,0,0-1.46-.56,4.94,4.94,0,0,1-1.52-.07,17.78,17.78,0,0,0-3.33-.13c-2.29.29-4.35-.52-6.47-1a36.92,36.92,0,0,1-5.89-2c-1.83-.78-3.81-1.27-5.59-2.12a23.69,23.69,0,0,1-5.71-3.25,3.81,3.81,0,0,0-.81-.51c-1.21-.59-2.49-1.07-3.62-1.77a17.94,17.94,0,0,1-2.66-2.18c-.88-.8-1.62-1.76-2.56-2.48a13.22,13.22,0,0,1-2.81-3.61,35,35,0,0,0-2.9-3.46c-.27-.31-.6-.57-.86-.89a12.84,12.84,0,0,0-2.75-2.86A5.07,5.07,0,0,1,89.45,141c-.11-.46-.57-.85-.91-1.31a4.25,4.25,0,0,1,2-2.13,2.32,2.32,0,0,1,1.17-.15,15.5,15.5,0,0,0,2-.06c2.55-.47,4.63-2,7-2.9,1.73-.66,3.48-1.31,5.22-2l2.83-1c-.81-.86-1.19-1.85-2.24-2.35a2.15,2.15,0,0,1-.78-.92,11.25,11.25,0,0,1-1.42-8.31c.39-1.81,1-3.6,1.26-5.43a28.83,28.83,0,0,0,.24-4.26c0-1.14,0-2.27-.12-3.41a8,8,0,0,0-.39-3.13,11.9,11.9,0,0,1-.89-2.39,5.22,5.22,0,0,1,.1-3.18c.59-1.76,1.27-3.48,1.9-5.23s1.16-3.37,1.8-5a19.57,19.57,0,0,1,8.39-10A16.5,16.5,0,0,1,129.32,76c2.41.56,4.82,1,6.92,2.35a1,1,0,0,0,1.41-.26c1.09-1.63,2.91-2.42,4.39-3.59a20.82,20.82,0,0,1,2.7-1.4c1.79-1,3.53-2.09,5.33-3.07,1.33-.72,2.78-1.26,4.1-2a32.25,32.25,0,0,0,2.85-2A52.28,52.28,0,0,1,164.53,62c.53-.26,1-.58,1.56-.81a7,7,0,0,1,1.77-.6c1.26-.14,2.4-.91,3.75-.59,3.2.75,6.59.81,9.51,2.5a2.42,2.42,0,0,1,.77.54c1.16,1.48,2.25,3,3.44,4.48s2.55,3.06,3.94,4.49a3,3,0,0,0,1.79.56,11.45,11.45,0,0,1,6.36,2.65c1.48,1.16,2.82,2.47,4.2,3.74.3.28.68.64.72,1,.15,1.37,1.52,1.91,2.13,3,.34.6,1.24.93,1.92,1.33,1.07.64,2.17,1.24,3.27,1.86a6.56,6.56,0,0,0,1.28-1.18c1.14-1.93,3.07-3.15,4.57-4.76a6.8,6.8,0,0,1,3.05-2.06c1.15-.34,1.69-.2,2.27.73A16.84,16.84,0,0,0,222,80.51a1.15,1.15,0,0,1,.13,1.42,3.39,3.39,0,0,0,.39,4.15,11.55,11.55,0,0,1,1.77,3.18A26,26,0,0,1,225.49,94a42.49,42.49,0,0,1,.52,9.29c0,.87-.14,1.74-.21,2.67a2.19,2.19,0,0,0,2.24-.14,16.17,16.17,0,0,0,3.33-2.3,4.27,4.27,0,0,1,5.9.33,12.08,12.08,0,0,1,1.7,2.94c1.26,2.67,1.4,5.55,2,8.32a14.71,14.71,0,0,1,.23,5.41c-.21,1.42-.64,2.82-1,4.23a15.23,15.23,0,0,1-.83,3.7c-.6,1.12-.71,2.42-1.7,3.41s-1.41,2.25-2.34,3.16c-2.28,2.21-4,4.92-6.68,6.77-1.44,1-2.88,2-4.27,3.08-.41.31-.61.84-1,1.19-1.87,1.71-3.76,3.39-5.64,5.09-.88.8-1.77,1.61-2.6,2.47a27.79,27.79,0,0,1-3.86,3.13c-.92.66-1.87,1.25-2.84,1.81a14.39,14.39,0,0,1-2.15,1c-1.38.52-2.82.92-4.18,1.51a15.45,15.45,0,0,1-7.24,1c-1.05,1.73-2.82,2.56-4.59,3.41a7,7,0,0,0-1.44,1.18,30.05,30.05,0,0,1-3.74,3.24,29.49,29.49,0,0,0-2.62,2.19c-1.22,1-1.27,2.42-1.15,3.8a4.72,4.72,0,0,1-.28,1.6c-.5,2.27-2,4.28-1.88,6.71a.61.61,0,0,1-.05.3,19.56,19.56,0,0,0-1.64,7.36,4,4,0,0,1-.19.91,29.4,29.4,0,0,0-1,6.65,20.71,20.71,0,0,1-1.1,4.47c-.45,1.34-1.28,2.55-1.25,4a3.42,3.42,0,0,1-.49,1.46c-.59,1.27-1,2.6-1.5,3.9a32.77,32.77,0,0,1-3,6.07c-.5.79-.48,1.74-1.16,2.44a7,7,0,0,0-1.38,2.34c-.86,2.05-2,4-3,6a2.93,2.93,0,0,0-.13.74c1-.39,1.41-1.2,2-1.81,1.26-1.39,2.5-2.8,3.76-4.19a25.19,25.19,0,0,1,2-2c1.81-1.57,3.72-3.05,5.49-4.67a26.7,26.7,0,0,1,4.27-3.66c2.21-1.31,4.45-2.56,6.7-3.81,1.16-.65,2.37-1.21,3.51-1.89a1.44,1.44,0,0,0,.59-1,12.18,12.18,0,0,1,1.6-5.1,29.55,29.55,0,0,0,1.69-4.93q1.5-4.71,3-9.42c.06-.2.08-.45.21-.57,1.13-1,1.14-2.37,1.59-3.61a36.15,36.15,0,0,1,1.85-4.06c.88-1.73,1.8-3.43,2.78-5.1.7-1.21,1.5-2.37,2.31-3.51a55.73,55.73,0,0,1,3.93-5.32c1.6-1.76,3-3.71,5.23-4.94,1.28-.71,2.34-1.78,3.61-2.52,1.45-.85,3-1.49,4.52-2.27,1.34-.7,2.64-1.45,3.94-2.22a37.71,37.71,0,0,1,9.36-4.48c1.32-.36,2.59-.92,3.92-1.28,4.34-1.16,8.68-2.21,13.25-2.11,2.64,0,5.29-.15,7.93-.21.79,0,1.59.07,2.48.11.07,1.28.15,2.45.2,3.62.06,1.44.14,2.87.13,4.31,0,.58-.3,1.16-.33,1.74a50.65,50.65,0,0,1-.3,5.93,33.2,33.2,0,0,0-.68,5.6c0,.4,0,.8,0,1.2a5.34,5.34,0,0,1-1,4.08c-.75.94-.54,2.22-.88,3.33a51.17,51.17,0,0,1-2.23,7,40,40,0,0,1-4.91,8.24c-1.41,1.74-2.62,3.64-4.12,5.3a24.51,24.51,0,0,1-3.46,2.83,19.19,19.19,0,0,1-2.8,2c-2.11,1.07-4.15,2.26-6.32,3.24-3.07,1.38-6.34,2.31-9.32,3.9a10.1,10.1,0,0,1-4.3,1.34c-1.26,0-2.1.82-3.26.93a31.25,31.25,0,0,0-3.56.74c-.26.06-.58.27-.77.19-2.15-.93-4.21.5-6.33.2-.76-.11-1.53-.2-2.29-.3Zm-87,124.49,1.22-.07c1.8-.13,3.6-.34,5.41-.37,3.09-.07,6.19,0,9.29,0,4.07,0,8.15.07,12.23-.09,2.57-.11,5.15.22,7.71.06s5.33-.19,8-.16,5.16,0,7.75-.05c1.18,0,2.36-.1,3.53-.05,2.66.1,5.3.35,8,.39,2.88,0,5.76-.12,8.65-.12,4.27,0,8.54.06,12.81.11,1.75,0,3.5,0,5.25.08,1.42.06,2.83.23,4.21.34.58-1.81,1.09-3.55,1.69-5.26.53-1.48,1.19-2.93,1.78-4.4a15,15,0,0,0,.74-2,6.19,6.19,0,0,0,0-1.43c-1.55,0-2.89,0-4.22,0-2.95-.1-5.91-.26-8.87-.36-1.23-.05-2.47,0-3.71,0-3.65-.1-7.29-.23-10.94-.3-2.4,0-4.81,0-7.21,0a18.53,18.53,0,0,1-2.56-.27c-.23,0-.58-.23-.61-.39a6.42,6.42,0,0,1-.22-2.36c.17-.84,1.12-.65,1.78-.64,2.59,0,5.17.07,7.76.11s5.26.1,7.9.11c1.61,0,3.23-.09,4.84-.08,2.52,0,5,.25,7.56.09a50.61,50.61,0,0,1,8.35.06,13.63,13.63,0,0,0,1.42,0c.34-1.12.63-2.05.91-3s.61-2.08.91-3.11c.14-.47,0-1-.51-.86-.74.3-1.27-.06-1.9-.1a28.93,28.93,0,0,0-3.59.21,5,5,0,0,1-1.09-.11c-.36-.06-.76-.3-1.08-.22a18.38,18.38,0,0,1-3.31.18c-.94.06-1.79-.26-2.66-.21-1.88.09-3.75.58-5.59-.18-.08,0-.2.06-.3.07-3.07.36-6.14-.11-9.2,0-.64,0-1.28-.08-1.92-.11-1.86-.06-3.72-.07-5.57-.18-1.42-.08-2.92.38-4.24-.52a1.21,1.21,0,0,0-.61-.1c-.63,0-1.26,0-1.88,0a25.21,25.21,0,0,1-5.27-.47,2.45,2.45,0,0,0-1.1.17,23.6,23.6,0,0,1-9.06,0,6.87,6.87,0,0,0-1.57-.09c-1,.06-2,.16-3,.29-1.87.25-3.81,0-5.62.66a1.87,1.87,0,0,1-.75.06c-1.15,0-2.3-.09-3.45,0-3.35.14-6.71.28-10.06.49-2.4.15-4.83-.41-7.21.32h-.16c-1-.06-2-.06-3-.18-1.58-.19-3.13.21-4.69.15s-2.92.06-4.34,0c-2-.1-4,.23-5.93,0a29.35,29.35,0,0,0-3,0c-.34.22-.85.63-.6,1.26a1.43,1.43,0,0,0,1.39.85,1.47,1.47,0,0,1,1.55,1.31,2.22,2.22,0,0,0,.48,1.12c1.76,1.81,1.76,4.36,3,6.39a.2.2,0,0,1,0,.15,7,7,0,0,0,.85,3.1c.49,1.23,1.11,2.4,1.49,3.69.25.86.38,1.76.69,2.6C120.18,333.89,120.65,335.08,121.14,336.34Zm118.1-45.59a17.45,17.45,0,0,0-3.72-.19c-2.29-.15-4.62.15-6.94.23a5.42,5.42,0,0,1-1.5-.2c-2-.53-4.12.6-6.15-.15a.41.41,0,0,0-.31,0c-.79.51-1.64.19-2.47.18s-1.72,0-2.58,0a12,12,0,0,1-4.7-.22,2.37,2.37,0,0,0-1,0,17.93,17.93,0,0,1-2.17.29c-2.14,0-4.28-.1-6.41-.11-1.21,0-2.43.19-3.62.07a27.21,27.21,0,0,0-6.12.15,3.12,3.12,0,0,1-.74-.09,22.74,22.74,0,0,0-2.45-.22,16.27,16.27,0,0,1-3.38.22c-1.23-.24-2.53.55-3.66-.3-1.5.51-3,.06-4.56.24-2.72.33-5.44-.17-8.17-.08-.94,0-2-.4-2.81-.11-1.55.55-3.06.21-4.57.23-2.09,0-4.24-.5-6.25-.15-1.81.31-3.52-.12-5.27.09-.75.08-1.63-.41-2.31-.21a9.27,9.27,0,0,1-4,.19c-2.5-.34-5,.11-7.52-.08s-4.87.14-7.3.18a18.06,18.06,0,0,1-2.18-.28,5.78,5.78,0,0,0-1.1,0c-1,.07-1.94.27-2.9.25a45.22,45.22,0,0,0-8.39.09.91.91,0,0,1-.32,0c-2.3-.61-4.65-.07-7-.23-.79-.05-1.58-.09-2.37-.11-.32,0-.64,0-1,.05-.79,0-1.57.09-2.36.1-1.33,0-2.65,0-4.29,0,.79,1.94,1.47,3.64,2.17,5.37,8.22-.32,16.27-.48,24.47-.38l.19,2.47c-8,.53-15.79,0-23.66,0,.15,2.46,1.75,4.06,3,5.8h.43c1.59-.16,3.21-1.15,4.75.17.1.08.32,0,.48,0,1,0,2,0,3-.1,1.28-.08,2.55-.25,3.83-.3s2.33.08,3.49,0,2.55-.36,3.84-.43c1.93-.11,3.87-.1,5.81-.15,2.65-.07,5.29,0,7.94-.22,2.25-.23,4.54-.09,6.82-.1,2.45,0,4.92.13,7.36-.06,2-.15,4,.12,6.06.16a65.61,65.61,0,0,0,6.87,0,38.09,38.09,0,0,1,4.45-.48c1.56,0,3.07.29,4.61.45a54.4,54.4,0,0,0,7.33-.08c1.55-.05,3.1-.25,4.65-.24,2.08,0,4.16.17,6.24.24,2.65.08,5.3.13,7.95.21,1,0,2,.14,3,.14a54.48,54.48,0,0,1,6.39,0c2.24.29,4.49.08,6.74.37,1.81.24,3.76,0,5.64.1,2.23.06,4.45.3,6.68.44.37,0,1,.08,1.08-.1.59-.84,1.29-.57,2.08-.44,1,.17,2.1.19,3.19.28A47,47,0,0,0,239.24,290.75Zm-101.53-150v-.38c-1.43-.52-2.83-1.14-4.3-1.52a7.92,7.92,0,0,1-3.08-1.58,6.77,6.77,0,0,0-2.16-1.51,12.61,12.61,0,0,0-4.26-.51c-2.94.27-5.85.8-8.78,1.25a20.49,20.49,0,0,0-2.8.59c-2.93.92-5.83,1.91-8.75,2.86-.65.22-1.34.36-2,.63-1.24.52-2.45,1.11-3.85,1.74,1.11,1,2.12,1.7,3,2.58,1.55,1.6,2.91,3.37,4.62,4.83.64.55,1.28,1.07,1.9,1.64a20.86,20.86,0,0,0,4.55,3.53c.51.26,1,.5,1.54.79,1.51.87,3,1.79,4.51,2.65,2.14,1.21,4.6,1.65,6.88,2.53,1.19.46,2.43.78,3.65,1.16a15.39,15.39,0,0,0,5.84.88c1.69-.15,3.38-.24,5.08-.24,2,0,4,.16,6,.18a12.85,12.85,0,0,0,3.17-.2c2.21-.52,4.37-1.22,6.55-1.85,1.22-.35,2.42-.79,3.65-1.06a7.76,7.76,0,0,0,3.49-1.18,1.37,1.37,0,0,1,.46-.14,32.6,32.6,0,0,0,7.16-1.9,1.85,1.85,0,0,1,.48-.07,35.74,35.74,0,0,1,7.31-.36c2.5.29,5,.43,7.38,1.48a30.86,30.86,0,0,0,4.05,1.22c1.08-2,1.06-2.18-.3-3.47-.2-.18-.38-.36-.59-.52-1.64-1.21-3.08-2.72-5.27-3.1a5.55,5.55,0,0,1-2-.64,4.35,4.35,0,0,0-2.13-.56,4.52,4.52,0,0,1-1.06-.29c-1.25-.42-2.46-.94-3.74-1.24-2.52-.61-5.07-1.09-7.61-1.64-3.49-.76-7-1.6-10.48-2.28a53.31,53.31,0,0,0-6.06-.73,17.27,17.27,0,0,0-4.13.1c-3.4.59-6.75,1.43-10.14,2a9.75,9.75,0,0,1-5-.76A9.25,9.25,0,0,1,137.71,140.72Zm67.77,52.22a27.47,27.47,0,0,0,5.28-5.74c1.2-1.63,2.35-3.3,3.64-4.87a2.67,2.67,0,0,0,.67-1.48,25.7,25.7,0,0,1,.66-4.11,4.11,4.11,0,0,1,3.18-3.18c1.2,1.36-.25,2.6-.26,3.93.26-.05.45,0,.55-.12,1.3-1.06,2.67-2.05,3.86-3.22a38.83,38.83,0,0,1,7.37-5.62c2.87-1.7,5.83-3.27,8.75-4.88,1.19-.65,1.37-.6,2.46.66a9.73,9.73,0,0,1-1.06,1.28c-2.35,2-4.73,4-7.1,6-1,.85-2,1.71-2.94,2.59-2.14,2-3.84,4.37-6.35,6-.18.12-.18.5-.32.9,2.65-.71,5.29-.61,7.69-1.7a24.58,24.58,0,0,1,3.83-1.16,3.6,3.6,0,0,1,4,.91,6.37,6.37,0,0,1-3.26,2.26c-1.46.48-3,.79-4.43,1.31a10.41,10.41,0,0,1-3.45.62,22.55,22.55,0,0,0-7.64,1.78,4,4,0,0,0-1.46,1.12q-1.67,1.92-3.17,3.94a15.27,15.27,0,0,0-1.16,2.22c3.15-.12,6.06-.42,9-.29s5.69-1,8.62-.5a4.54,4.54,0,0,1-3.58,3,56.36,56.36,0,0,1-9.08.74c-2.31.09-4.62.14-6.93.28a2.34,2.34,0,0,0-1.38.57c-1.85,1.82-3.62,3.72-5.47,5.55a2.44,2.44,0,0,0-.72,2.86,33.33,33.33,0,0,0,3.47.24c1.49,0,3-.26,4.46-.38.69-.05,1.5.17,2.06-.11a28.62,28.62,0,0,1,4.24-1.16c2.23-.69,4.52-1.23,6.74-1.94,2.59-.82,5.15-1.72,7.7-2.63a34.89,34.89,0,0,0,12-6.65,16.32,16.32,0,0,0,2.47-2.59,52.54,52.54,0,0,0,3.53-5.47c1.23-2.27,2.44-4.55,2.63-7.21a25.36,25.36,0,0,1,.94-3.87c.34-1.44,1.09-2.82.81-4.34a15.09,15.09,0,0,1,.44-7.55c.84-2.5.55-5,.39-7.53-.08-1.32-.79-1.85-2-1.43a26.68,26.68,0,0,1-4.83,1,29.53,29.53,0,0,0-5.41,1.7,37.57,37.57,0,0,0-6.33,2.51c-2.41,1.37-4.95,2.55-7.27,4a26.22,26.22,0,0,1-3.71,2,6.14,6.14,0,0,0-2.18,1.16,4.09,4.09,0,0,1-1.62,1.15,9.78,9.78,0,0,0-3.39,2.5,46.25,46.25,0,0,0-5.32,6.35,64.26,64.26,0,0,0-3.62,5.64,33.94,33.94,0,0,0-2.6,4.92c-.63,1.92-1.59,3.75-2.39,5.63C206,191.44,205.77,192.2,205.48,192.94Zm-24.39-53c1.95-.55,3.73-1.07,5.52-1.55a11.81,11.81,0,0,0,2.29-.58,31.34,31.34,0,0,1,5-2,20.2,20.2,0,0,0,2.29-.61c2-.92,3.93-1.88,5.84-2.92,2.07-1.13,4.15-2.24,5.6-4.18,1-1.37,2.23-2.63,3.35-3.93a6.11,6.11,0,0,0,.94-1.05c1.29-2.62,3.18-5,4-7.81.16-.58.62-1.09.73-1.68.36-2,.64-4,.91-5.94a36,36,0,0,0,.75-6.55c-.08-1.64.06-3.28,0-4.92a24.66,24.66,0,0,0-1.06-6.48c-.06-.23-.35-.39-.58-.63l-1,1.35c-1.14,1.55-3.19,2.38-3.78,4.38,0,.12-.23.21-.35.31l-6,5c-.45.37-.89.74-1.35,1.08-1.56,1.17-3.15,2.31-4.7,3.49-1,.75-1.91,1.57-2.86,2.36a22.49,22.49,0,0,0-2.62,2.21,18.45,18.45,0,0,1-4.35,3.76,19.45,19.45,0,0,0-1.86,1.42c-1.48,1.13-2.93,2.31-4.45,3.39-1.74,1.22-3.63,2.26-5.29,3.58s-3.32,3-4.94,4.54a2.49,2.49,0,0,0-.07,3.65c1.15,1.14,2.38,2.21,3.51,3.37.79.81.86.9,1.84.41,1.9-1,3.79-1.9,5.66-2.89s3.68-2.09,6.09-1.52a4.21,4.21,0,0,1,0,2.51,5,5,0,0,1-2,2.61,21.7,21.7,0,0,1-4.23,2.11c-1.15.5-2.35.89-3.63,1.37ZM141,208.85a27.09,27.09,0,0,0-1.13-4.65c0-.13.07-.32,0-.45a10.89,10.89,0,0,0-.93-3,47.9,47.9,0,0,1-2.51-4.67c-.64-1.29-1.9-1.89-2.65-3-1.45-.1-2.07-1.48-3.37-2s-2.59-1.52-4-2.17c-.45-.22-.76-.72-1.21-.92-1.07-.46-2.18-.82-3.28-1.22a34,34,0,0,0-4.17-1.48,76.42,76.42,0,0,0-7.68-1.29,21.92,21.92,0,0,0-5,0,45.39,45.39,0,0,0-4.83,1.08,79.31,79.31,0,0,0-9.43,2.72c-3.48,1.26-7.07,2.31-10.66,3.26a16.52,16.52,0,0,0-6,3.15,21.14,21.14,0,0,0-2,2.12c.79.05,1.31.07,1.82.12a29.44,29.44,0,0,1,4,.37,25.76,25.76,0,0,1,7.84,3.7c2.86,1.8,5.67,3.69,8.54,5.48,3.13,2,6.26,3.95,9.49,5.74a34.74,34.74,0,0,0,8.08,3.36c1.22.32,2.47.52,3.71.74,2.48.44,4.95.92,7.49.29a15,15,0,0,1,3.64-.52,7.34,7.34,0,0,0,3.77-1.13c2.24-1.22,4.5-2.43,7.17-2.57a6.69,6.69,0,0,0,1.37-.47c-2.08-1.09-3.65-2.31-5.6-3-2.86-.94-5.17-2.88-7.87-4.15-1.53-.73-2.91-1.88-4.52-2.55a6.4,6.4,0,0,0-4.82-.39c-1.64.61-3.28,1.23-4.89,1.88a7.94,7.94,0,0,1-5.21.22,19.6,19.6,0,0,1,1.66-2.38,18.89,18.89,0,0,1,2.29-1.79,9,9,0,0,0-4.1-.86,51.69,51.69,0,0,1-7.44-.67c-1.45-.24-3-.17-4.43-.34-2.88-.32-5.75-.71-8.63-1.1a2.84,2.84,0,0,1-.75-.39,4.26,4.26,0,0,1,.73-.54c1.08-.46,2.16-.92,3.26-1.3a18.35,18.35,0,0,1,6.63-1.45c1.76.06,3.52,0,5.28,0,.6,0,1.21-.09,2.07-.16l-2-2.77c1-.2,1.62-.38,2.3-.47,2.44-.3,4,1.18,5.55,2.6a6.65,6.65,0,0,0,3.31,2c2.68.53,5.33,1.21,8,1.85,1.14.27,2.27.6,3.4.9.25.07.49.17,1.08.36-.42-.59-.59-.91-.83-1.17-1.06-1.16-2.16-2.27-3.18-3.46a7.37,7.37,0,0,1-1.12-1.84,1,1,0,0,1,.17-1,1.17,1.17,0,0,1,1-.14,5.26,5.26,0,0,1,1.42,1c1,1,2,2,3.1,2.92a11,11,0,0,1,4.06,5.38,4,4,0,0,0,2.25,2.78,25.51,25.51,0,0,1,3.24,2,18.83,18.83,0,0,1,4.2,3.34A24.54,24.54,0,0,0,141,208.85Zm35-66.18a7.57,7.57,0,0,0-1.81-3.83c-1.84-2.06-3.91-3.94-5.9-5.88a10.85,10.85,0,0,1-1.2-1,10.91,10.91,0,0,0-3-2.86c-2.31-1.47-4.57-3-6.84-4.55a38.06,38.06,0,0,0-7.83-3.74c-1.94-.74-4-1.15-6.05-1.72a34.17,34.17,0,0,0-4.58-1.25,9.2,9.2,0,0,1-6-3.09c-1.72-2-3.51-3.9-4.34-6.43-.3-.9-.72-1.77-1.16-2.84-.21.39-.35.59-.44.81-.62,1.54-1.22,3.08-1.85,4.61a13.69,13.69,0,0,0-1.23,5.85c.06,1.28.5,2.46.66,3.69.43,3.19,2.27,5.55,4.5,7.71q1.62,1.56,3.36,3a7.35,7.35,0,0,0,2.19,1.38c2.76.91,5.57,1.69,8.36,2.52l5.19,1.54a35.48,35.48,0,0,0,6.26,1.71c3.38.3,6.48,1.79,9.9,1.81a7.86,7.86,0,0,1,2.57.62A55.8,55.8,0,0,0,176,142.67Zm-33-53.38a18.55,18.55,0,0,1-3.53-1.82c-1-.83-2.2-1.41-3.17-2.34a12.18,12.18,0,0,0-3.95-2,26.75,26.75,0,0,0-7.66-2.08,9.21,9.21,0,0,0-5.18,1.06,10.6,10.6,0,0,0-3.36,2.68,15.52,15.52,0,0,0-2.84,5.09c-.81,2.4-1.6,4.79-2.34,7.21-.44,1.45-1,2.88-.14,4.45a11.94,11.94,0,0,1,1.17,3.93,23.8,23.8,0,0,1,.21,9.49c-.24,1.5-.48,3-.68,4.53-.23,1.7-.83,3.45.57,5a4.54,4.54,0,0,0,.79.84c2.27,1.41,4.9,1,7.49,1.49-.6-2.58-1.2-4.92-1.69-7.28a12.06,12.06,0,0,1,.79-7.73c1.29-2.68,3-5.17,4.65-7.94a3,3,0,0,0-.23-.58,13.59,13.59,0,0,1-1.36-2.18,4.52,4.52,0,0,1-.48-2.77c.59-1.63,3.07-2.14,4.57-1.14.73.49,1.38,1.09,2.14,1.69.85-.56,1.74-1.21,2.69-1.76A7.82,7.82,0,0,1,136.08,96a23.43,23.43,0,0,1,3.06.68A23.46,23.46,0,0,1,143.05,89.29Zm78.35,36.22c0,.27.1.43.06.47-1.4,1.25-2.5,2.79-4.38,3.56-1.24.51-2.69.74-3.54,2a8.74,8.74,0,0,1-1.5,1.94c-1.59,1.28-2.84,2.95-4.83,3.78a21.58,21.58,0,0,0-2.49,1.46c-.81.48-1.63.94-2.43,1.43-.46.29-.88.64-1.53,1.11a9.27,9.27,0,0,1,4.8,4.58c-1.95.37-3.7.89-5.65.45-2.73-.62-5.5-1.08-8.28-1.49a6.55,6.55,0,0,0-4.64,1.18l2,1.41c.7.47,1.46.87,2.11,1.4a27.28,27.28,0,0,1,2.52,2.28c.92,1,1.75,2,2.59,3a1.27,1.27,0,0,1,.26.73c0,.9.45,1.77.07,2.72-.15.38.18.93.36,1.68,1.28-.71,2.36-1.25,3.38-1.89a21.78,21.78,0,0,1,2.89-1.94,12.12,12.12,0,0,0,5-4,54.21,54.21,0,0,1,7.06-7.95,31.36,31.36,0,0,0,2.58-2.3,19.14,19.14,0,0,1,5.22-4,7,7,0,0,0,1.63-1.45c1.25-1.31,2.54-2.59,3.69-4s2.3-2.42,2.81-4c1.06-3.37,2.09-6.74,1.86-10.32a12.63,12.63,0,0,1,.3-2.29c-1.2-.87-.73-2.37-1.25-3.73-2.42,1-4.94.5-7.34.33a37.25,37.25,0,0,1-6.29,13.82Zm-76-39.17a38.49,38.49,0,0,0,3.72-3.14c1.38-1.52,3.24-2.33,4.86-3.49s3.24-2,4.33-3.63a4.53,4.53,0,0,1,2.35-1.5,7.52,7.52,0,0,1,6.76.56,3.37,3.37,0,0,0,1.33.54,2.94,2.94,0,0,1,2.16,1.45A6.32,6.32,0,0,0,175.5,80a22.46,22.46,0,0,1,6.15,1.53c2.23,1,4.31,2.21,6.51,3.22.22.1.37.36.57.51a5.07,5.07,0,0,0,1.41,1,5.35,5.35,0,0,1,3.45,2.55,1.5,1.5,0,0,0,.39.48,11.5,11.5,0,0,1,3.24,4.66c.29.64.51,1.31.77,2,.08.21.16.6.27.61a1.23,1.23,0,0,0,.85-.2c.79-.69,1.5-1.44,2.28-2.13S203.1,92.67,204,92l1.4-1.12a21.87,21.87,0,0,1-3.93-2.08c-1.58-1.3-2.45-3.3-4.36-4.34-.15-.08-.15-.39-.28-.54a4.64,4.64,0,0,0-.77-.7,6.38,6.38,0,0,1-1-.69,6.23,6.23,0,0,0-4.05-2.43c-1.16-.15-2.56-.19-3.52-1.2-.18-.2-.61-.17-.9-.3a8.77,8.77,0,0,1-1.2-.67A18.62,18.62,0,0,1,181.64,75c-.8-1-2-1.75-2.39-2.83-1.12-2.84-3.75-3.56-6.22-4.6-.85.64-1.37-.58-2.24-.32s-2.16-.17-3,.75c-1.91.08-3.37,1.32-5.15,1.82-1.46.4-2.69,1.61-4,2.51a16.73,16.73,0,0,1-4.28,2.33,7.93,7.93,0,0,0-2.79,1.42,16.64,16.64,0,0,1-4,2.22c-1.43.66-2.9,1.23-4.29,2a20.42,20.42,0,0,0-2.4,1.69A15.38,15.38,0,0,0,145.39,86.34Zm22.3,36.57c1.63-1.58,3-3,4.48-4.3s3.12-2.62,4.71-3.89c1.89-1.51,3.82-3,5.72-4.48a13.29,13.29,0,0,1,1.77-1.53,13.41,13.41,0,0,0,3.14-2.54c1.14-1.14,2.24-2.33,3.32-3.53a1.08,1.08,0,0,0,.24-.82c-.31-1.56.4-3.09.1-4.66-.11-.53.18-1.13.07-1.66a17.28,17.28,0,0,0-1.58-3.74,2.38,2.38,0,0,0-1-1.22c-1.9-.8-3-2.5-4.6-3.63-2.16-1.51-4.66-2.29-6.95-3.49a5.51,5.51,0,0,0-1.1-.25c-.67-.17-1.34-.32-2-.53a1.09,1.09,0,0,0-1.37.39c-1,1.15-2.08,2.2-3.11,3.3-.11.12-.09.35-.15.62a17.39,17.39,0,0,1,4,.06,7.22,7.22,0,0,0,3.9-.44,7.47,7.47,0,0,1,5.63.56,4.85,4.85,0,0,1,2.75,3.72,10.06,10.06,0,0,1,.35,2.57,19.77,19.77,0,0,1-2.83,8.45c-1.4,2.14-2.87,4.3-5.33,5.38-1.9.83-3.32,2.23-5,3.24a8.19,8.19,0,0,0-2.34,1.78c-2,2.59-3.42,5.44-3.12,8.8C167.41,121.62,167.55,122.17,167.69,122.91Zm-7.1-2.23c.55-1.79,1-3.3,1.47-4.83.24-.82,0-1.13-.88-1.2-.47,0-1,.15-1.42,0-2.34-.83-4.67-1.7-7-2.63-.61-.25-1.07-1-1.69-1.09-1.09-.24-1.53-1-2.14-1.72a8.37,8.37,0,0,1-1.29-3.06c-.84-2.38.07-4.38,1.28-6.24.63-1,1.4-1.92,2-3,.78-1.44,1.2-3.08,2.82-4,.07,0,.07-.19.12-.28,1.25-2.3,3.38-3.25,5.95-3.61,1.63-.22,3.24-.59,4.58-.85A26.85,26.85,0,0,1,165.62,85c.67-1.27,1.52-2.45,2.38-3.81a16.36,16.36,0,0,0-5.18-2.43,11,11,0,0,1-1.42,1.66c-2.2,1.75-4.44,3.45-6.67,5.15a18.32,18.32,0,0,0-3.07,2.38,36.26,36.26,0,0,1-3,2.94,15,15,0,0,0-4,6.49,3,3,0,0,0,0,1.47c.21,1.06.53,2.09.79,3.14.53,2.09,1.12,4.16,1.53,6.27.48,2.45.79,4.93,1.17,7.41a14.45,14.45,0,0,1,5.85,1.52c1.2.64,2.42,1.23,3.63,1.85l1.66.88ZM128.11,238.87c-.75.22-1.16.29-1.53.45-1.72.78-3.4,1.65-5.15,2.36a3.91,3.91,0,0,0-1.9,1.57,35,35,0,0,0-2.3,3.9,4.21,4.21,0,0,1-2.16,2c-.78-1-.44-1.94-.33-3.11-2.16,1.6-3.93,3.56-6.81,3.89a7.81,7.81,0,0,1,1.59-4.1,24.64,24.64,0,0,1,5.87-5.7,54.59,54.59,0,0,1,5.93-3.09c.78-.39,1.59-.71,2.38-1.06l-.08-.31c-1,0-2,0-3,0a11.17,11.17,0,0,0-2.16.25c-.71.17-1.35.57-2,.75a9.68,9.68,0,0,0-5.21,3.33,6.42,6.42,0,0,1-1.09,1.12,25.66,25.66,0,0,0-4.55,4.65c-1,1.29-2,2.69-3,4a20.52,20.52,0,0,0-3.59,5.59,7.3,7.3,0,0,0,1.54.29,28.64,28.64,0,0,0,4.15-.24c2.57-.44,5.12-1,7.66-1.58a14.23,14.23,0,0,0,3.58-1.26c3.61-2,6.54-4.79,9.49-7.55a1.53,1.53,0,0,0,.33-.53C126.45,242.72,127.2,241,128.11,238.87Zm27.77-138c-.33,1.3-1.18,2.49-1.09,3.88a3.56,3.56,0,0,0,.62,2.14,6.45,6.45,0,0,0,2.72,2.05,7.25,7.25,0,0,1,2.87,1.91,5.69,5.69,0,0,0,1.49.88c.5.25,1,.42,1.82.73.22-.28.5-.67.81-1a10.55,10.55,0,0,1,1.51-1.55c2-1.51,4.09-3,6.16-4.42,1-.66,2-1.21,2.91-1.92a9,9,0,0,0,2-2c.81-1.19,1.41-2.51,2.14-3.74a14,14,0,0,0,1.44-5.35,4.18,4.18,0,0,0-.3-2c-.54-1.6-2-2.19-3.82-1.59a8.06,8.06,0,0,1,.46.79,3.36,3.36,0,0,1-.72,4.36,2.34,2.34,0,0,0-.54,1.37,5.07,5.07,0,0,1-3.29,4.08c-1.55.66-3.14,1.25-4.74,1.81a14.88,14.88,0,0,1-7,.66c-1-.14-2-.36-3-.57C157.57,101.24,156.81,101.05,155.88,100.83Zm61.74,121.89a19,19,0,0,0-2.16-1.7,45.24,45.24,0,0,0-4.65-2.38c-2.67-1.14-5.15-2.7-8.1-3.23-2.08-.38-4.13-.68-6.09.35a6,6,0,0,1-3.08.73c-.61,0-1.43-.23-1.94.74a24.36,24.36,0,0,0,4.21,2c1.59.59,2.21,2.13,3.56,3.11a9.79,9.79,0,0,1,7.55.56,2.66,2.66,0,0,0,1.72,0,6.42,6.42,0,0,1,3.76,0c1.39.44,2.73,1,4.28,1.62ZM182.4,164.27a13.58,13.58,0,0,0-1.74-.78,17.28,17.28,0,0,0-5.69-.39,10.6,10.6,0,0,0-1.88.17c-2,.45-3.94.89-5.87,1.44-1.19.35-2.32.88-3.79,1.45a44.47,44.47,0,0,1,9,6.38,15.53,15.53,0,0,0,4.34-3.65,14.93,14.93,0,0,1,5.46-4.14C182.25,164.72,182.27,164.57,182.4,164.27Zm-43.22-63.66a4.09,4.09,0,0,1-2.58-.06,3.33,3.33,0,0,0-.63,0c-1.59,0-2.7.93-3.9,1.77a1.56,1.56,0,0,0-.73,2,13.9,13.9,0,0,0,1.53,3.86,26.31,26.31,0,0,0,4.33,4.56,4.82,4.82,0,0,0,4.29.92C140.72,109.27,140,105,139.18,100.61ZM174,90.89c.1-1.08-.55-1.13-1.22-1.19-2.61-.23-5.08.6-7.58,1.06-1.7.3-3.28,1.18-5,1.65a3.62,3.62,0,0,0-2.82,3c-.21,1,.2,2.46,1,2.68a32.14,32.14,0,0,0,5,1.21c3.19.38,5.78-1.24,8.4-2.66.7-.38.64-1,.53-1.64s-.89-.95-1.46-1c-1.89-.15-3.8-.48-5.56.76-1,.7-1.25.48-1.63-.88A10.3,10.3,0,0,1,174,90.89Zm26.44,145.62c-1.21-2-.83-4-.84-6-.76-.09-1.49-.22-2.22-.27a3.74,3.74,0,0,0-3.59,1.88,17.48,17.48,0,0,0-.94,1.95,2.29,2.29,0,0,0,1,3.28c.79.42,1.64.75,2.45,1.11Zm57.08.5a6.51,6.51,0,0,0-1.64-3.79c-.39-.54-1.06-.4-1.6-.1-.74.39-1.44.86-2.18,1.26a1,1,0,0,0-.68,1.09,2.93,2.93,0,0,1-.81,2.54c-.43.39-.32.79-.05,1.25a2.06,2.06,0,0,0,2.08,1.17,7.25,7.25,0,0,0,3.61-1.22A2.72,2.72,0,0,0,257.52,237ZM204,253.9a3.78,3.78,0,0,0-3.73,3.14c-.23,1.86,2.15,3.68,3.86,2.83a18.41,18.41,0,0,0,3.17-2.25,1.32,1.32,0,0,0,.43-1.07,19.72,19.72,0,0,0-1.05-2.52c0-.07-.19-.12-.29-.12Zm44.61-12.33a13.33,13.33,0,0,1-1.06,1.07,3,3,0,0,0-1,3.2,1.81,1.81,0,0,0,2.25,1.43c1-.17,2-.25,3-.41a8.82,8.82,0,0,0,1.85-.48,1.23,1.23,0,0,0,.66-.77c.15-.85.17-1.72.25-2.66a19.43,19.43,0,0,1-3.13-.19A17.77,17.77,0,0,1,248.59,241.57ZM230.69,224c-2.13.64-3.21,2.45-2.68,4.29a12,12,0,0,0,.72,2,1.8,1.8,0,0,0,.94.94c1,.24,2,.37,2.81-.59a4.38,4.38,0,0,1,.9-.72v-3.74A3.67,3.67,0,0,1,230.69,224ZM216.5,238.7a3,3,0,0,0,.72-2.85,6.12,6.12,0,0,0-3-3.65,2.49,2.49,0,0,0-2.7,0c-1.41.78-1.51,1.25-.35,2.28a4.35,4.35,0,0,1,1.84,3.72,2.09,2.09,0,0,0,.1.51ZM235.66,224a13.9,13.9,0,0,1,3.9-2,2.52,2.52,0,0,0,1.42-2.29c-.13-.89-2.93-2.61-3.69-2.14a8,8,0,0,0-2.37,1.42A3.23,3.23,0,0,0,235.66,224Zm4.16,14.34c-.45-1.87-.86-3.6-1.28-5.33a11.31,11.31,0,0,0-1.85-.43,2.6,2.6,0,0,0-1.5.28,3.12,3.12,0,0,0-.34,4.57,2.16,2.16,0,0,1,.47.62,3.8,3.8,0,0,0,2.41,2Zm-48.38,16.9a26.6,26.6,0,0,0,2.35,1.34,2.45,2.45,0,0,0,3.08-1.15c.22-.72.42-1.45.65-2.25-.37-.45-.81-1-1.23-1.49s-.87-1.13-1.28-1.67c-1,.73-2,1.37-2.9,2a.87.87,0,0,0-.29.53C191.69,253.35,191.59,254.13,191.44,255.23ZM244,232.91c-1.74-.06-2.38.56-1.9,1.72.19.47.18,1,.35,1.5a3.27,3.27,0,0,0,3.06,2.16,3.45,3.45,0,0,0,2.95-1.6,1.69,1.69,0,0,0-.29-2.35C247,233.08,245.15,233.52,244,232.91Zm-8.38,13.92c-.08-1.36-.15-2.62-.21-3.65l-3.3-2.31c-.39.32-.9.68-1.35,1.1a2.27,2.27,0,0,0-.25,3.38C232.2,247.41,233.14,247.69,235.63,246.83Zm9.18-5.6a.91.91,0,0,0-1.44-.51,11.87,11.87,0,0,0-3.77,2.74,2.72,2.72,0,0,0,.51,3.94,3.28,3.28,0,0,0,3.91.36C243.35,245.5,241.75,243.08,244.81,241.23Zm-95.64-67.1c3.34-1.43,6-4,9.65-4.78-1.13-1.35-1.56-1.42-2.76-.66a3,3,0,0,1-.84.38c-1.7.46-3.4.88-5.09,1.34a2.1,2.1,0,0,1-1.7,0,1,1,0,0,0-1.4.35Zm63.11,68.32c1.58,1.38,1.19,3.28,1.46,5,2.5-.11,2.5-.11,3.51-1.36s1-1.53,0-2.59a28.11,28.11,0,0,0-2.57-2.3,1.13,1.13,0,0,0-1.69.16A8.24,8.24,0,0,0,212.28,242.45Zm-22.43-9.34c-1.85-1.05-2.48-1-3.63.48a4.29,4.29,0,0,0,.09,5.12c.64.72,1.79,1,2.05.44.38-.84,1.32-1.52,1.1-2.54A5.67,5.67,0,0,1,189.85,233.11Zm13,16.86c-.07-1.36-.21-2.54-.16-3.72.11-2.74-.49-2.53-2.92-2.06a1.6,1.6,0,0,0-1.31,1.23,2.31,2.31,0,0,0,.33,2.06l2.18,3Zm7.17,2.72a1.34,1.34,0,0,0,1.65,1.15,1.43,1.43,0,0,1,1,.24,1.46,1.46,0,0,0,1.9.09c.55-.28,1.14-.51,1.78-.79.1-.85.25-1.7.27-2.56,0-.27-.33-.78-.53-.79-1.43-.06-2.94-.3-4.16.63A17.41,17.41,0,0,0,210.05,252.69ZM226,233.91c-.69,1-.35,2.15.13,3.35.89,2.22,1.63,2.13,3.72,1.86a2.55,2.55,0,0,0,.69-.25c-.2-1.48-.38-2.88-.55-4.14Zm10.69-4.71,2.35,1.53c1-.43,1.83-.85,2.71-1.18s1.85-.59,2.75-.87c0-.18,0-.25,0-.27-.48-.37-1-.74-1.46-1.09C240.73,225.67,238.06,226.39,236.69,229.2Zm15.95-7c-1.06-.89-1.84-1.64-2.72-2.26a3,3,0,0,0-1.59-.49,3.23,3.23,0,0,0-1.68.42c-.94.62-2.27,1-2.22,2.45l.33-.3,1.12,2.09c2-1.44,3.68-2,5.71-1.5C251.87,222.65,252.27,222.33,252.64,222.17Zm-43.78,18.66c-.1-.59-.16-1.1-.28-1.6a2.15,2.15,0,0,0-3.72-1.19c-.67.57-1.27,1.22-2,1.94l1.34,1.85C206.11,242.48,207.32,241.29,208.86,240.83ZM203.51,234a11.25,11.25,0,0,1,3-.88,2.32,2.32,0,0,0,2.54-1.82,5.08,5.08,0,0,1,.33-.66c-1.38-1.54-3.87-1.51-5.91,0Zm6.57,12.58c.15-1.27-.62-1.9-1.62-2.45-1.22-.67-2-.44-2.26.82a5.42,5.42,0,0,0,.45,3.58,1.67,1.67,0,0,0,1.57.9,1.17,1.17,0,0,0,1.25-.8C209.73,247.94,209.88,247.24,210.08,246.55Zm39-20.27a6.42,6.42,0,0,0-1.34.85,5.33,5.33,0,0,0-.83,1.3c-.35.62-.14,1.06.49,1.4.83.44,1.63,1,2.49,1.36a1.11,1.11,0,0,0,1-.06,5.47,5.47,0,0,0,1.36-1.85c.1-.31-.55-.87-.86-1.32a2.44,2.44,0,0,0-.46-.62C250.39,227,249.79,226.66,249.12,226.28Zm-60.4,16.12c-1.36-.14-1.7,0-1.9.74a5.37,5.37,0,0,0,2.16,5c1.44.86,2.13.63,3-1.08A4.49,4.49,0,0,1,188.72,242.4Zm5.55,1.69,2.17-2.9-4.71-1C191.62,243.07,192.26,244,194.27,244.09Zm62.22-14,1.87,1.63c.51-2.48.54-2.5-.66-4.49a31.87,31.87,0,0,0-1.88-2.65c-.32-.41-.76-.5-1.45-.12C256.16,226,257.26,227.7,256.49,230.11Zm-26.27-8.29c0-.34.15-.83,0-1.13a3.25,3.25,0,0,0-1.25-1.27,1.2,1.2,0,0,0-1.58.39,6.43,6.43,0,0,0-1.24,2.93Zm-6.3,6.37c-.73.4-1.44.6-1.45,1.52,0,.67-.09,1.34-.15,2.23l.85,1.16C225.07,231.71,225.16,231.15,223.92,228.19Zm-29.54-.27a2.4,2.4,0,0,0-2.6,1.7Zm3.13,12.6.12.39,2.62-.42-.06-.33A4.21,4.21,0,0,0,197.51,240.52ZM211.05,228c.08.62.24,1.18,1.15.75Z"/><path class="cls-1" d="M316.31,146.42c-.45.47-.75.75-1,1.06-1.76,2-3.54,4-5.26,6a5.89,5.89,0,0,0-1.51,2.84,11,11,0,0,1-1.36,2.75,5.09,5.09,0,0,1-2.94-1.74c-.84-1.07-1.84-2-2.73-3s-.64-1.66.28-2.53a22.14,22.14,0,0,0,2.49-2.82c.95-1.31,1.74-2.72,2.66-4a33.35,33.35,0,0,1,2.32-3c1.64-1.84,3.32-3.64,5-5.42a7.12,7.12,0,0,1,1.4-.86v-1a1.77,1.77,0,0,0-.51-.08,62.52,62.52,0,0,1-10,1.49c-.74.06-1,.47-1.35.93q-1.46,1.83-3,3.6a5,5,0,0,1-1.11.66,7,7,0,0,1-.61-1.46c-.37-2.49-.65-5-1-7.48-.17-1.11-.51-2.19-.76-3.28a2.65,2.65,0,0,1-.14-.91,4.34,4.34,0,0,0-.65-2.94,1.33,1.33,0,0,1,.29-1.83,1.66,1.66,0,0,1,1.88.45c.71.62,1.47,1.18,2.19,1.79.5.43,1,.9,1.48,1.38,1.33-.08,2.83-.13,4.31-.25.81-.07,1.61-.23,2.41-.37,3.44-.6,6.91-1.09,10.31-1.86a27.66,27.66,0,0,1,3.33-.92c1.27-.13,2.55-.22,3.83-.34a4.57,4.57,0,0,0,3.67-3.15c.05-.2.06-.45.19-.58.35-.35.76-.63,1.15-1,.25.36.67.7.74,1.09.36,2,.62,3.94.92,5.91.14,1,.31,1.94.44,2.91.18,1.46.31,2.93.49,4.39.32,2.56.76,5.1.95,7.67a18.55,18.55,0,0,1-.92,8.48,8.28,8.28,0,0,1-9.6,5.2,6.46,6.46,0,0,1-3.62-2.65c-.2-.24-.38-.49-.59-.72Zm13.92-14.73-9.29,1.57c-1.46.24-1.61.33-1.74,1.73a55.19,55.19,0,0,1-1.06,7.89c-.34,1.39,1.57,3.13,3.13,3a5.34,5.34,0,0,0,4.12-1.8,19.15,19.15,0,0,0,2.79-3.5c.36-.74.61-1.52.91-2.29A20.51,20.51,0,0,0,330.23,131.69Zm-2.5-5.39c.76.2,1.29.61,1.77,0,.12-.15-.06-.51-.12-1Zm-9.14-.57c-.64-.43-.91-.74-1.08-.69a.82.82,0,0,0-.52.61c0,.18.37.49.59.51S318.12,125.94,318.59,125.73Zm-18.33,2.53a2.46,2.46,0,0,0-.52-.36c-.06,0-.2.16-.3.25a1.61,1.61,0,0,0,.39.39C299.88,128.57,300.05,128.4,300.26,128.26Z"/><path class="cls-1" d="M20.34,189.47a31.23,31.23,0,0,1,4.55-3.91c1.3-.77,2.15-1.94,3.44-2.68a3.81,3.81,0,0,0,1.6-2.36,3.06,3.06,0,0,1,.57-1.24,1.76,1.76,0,0,1,2.94.06c1.13,1.63,2.07,3.37,3.05,5.08a1.06,1.06,0,0,1-.55,1.57c-2,1.06-3.27,2.92-4.81,4.46a61.3,61.3,0,0,1-4.88,4.65c-1.88,1.51-3.72,3.07-5.62,4.57a4.32,4.32,0,0,1-1.4.36l-.3,1.1a25.87,25.87,0,0,0,2.79,0,44.7,44.7,0,0,1,8.18.13,2,2,0,0,0,1.17-.58c1.27-1.13,2.48-2.33,3.76-3.46.23-.21.66-.22,1.25-.4,0,1.43,0,2.7,0,4,0,1.46-.08,2.93-.09,4.39,0,1.07.07,2.13,0,3.19s-.09,1.94-.14,2.91a2.77,2.77,0,0,0,.33,1.76,1.2,1.2,0,0,1-.37,1.88,1.41,1.41,0,0,1-1.81-.54c-.89-1-1.8-2-2.65-3a1.64,1.64,0,0,0-1.5-.67,13.12,13.12,0,0,1-2.57-.22,2.05,2.05,0,0,1-.73-.31,11.45,11.45,0,0,1-1.69.27c-1.45,0-2.9,0-4.35,0s-3.09.14-4.7.21l.4-1.22c-1.18-.28-1.18-.28-1.19,1.32-2.23.05-4.47.18-6.7.09-.8,0-1.61-.14-2.42-.12a6.13,6.13,0,0,0-3.45,1.54c-.31.22-.35.83-.43,1.28a1.12,1.12,0,0,1-1.22,1c-.77,0-.83-.62-.84-1.11,0-1.7,0-3.4,0-5.1,0-1.31.05-2.63.13-3.94.05-.84-.28-1.77.49-2.5a.44.44,0,0,0,.09-.41c-.61-1-.08-2-.06-3,.05-1.84.06-3.69.1-5.53a10.81,10.81,0,0,1,.09-1.39c.15-1,.31-2.1.51-3.14a10.6,10.6,0,0,1,4.83-7.45,8,8,0,0,1,5.87-1.12,6.16,6.16,0,0,1,3.74,2.48C17.35,184.63,18.81,187,20.34,189.47ZM4.08,201.9l10-.22c1.08,0,1.3-.28,1.57-1.37q.67-2.7,1.43-5.37c.24-.84.64-1.64.86-2.48a2.6,2.6,0,0,0-2.35-3.18,18.23,18.23,0,0,0-2.56,0,2.79,2.79,0,0,0-1.29.43,13.27,13.27,0,0,0-2.14,1.63,14.45,14.45,0,0,0-2.72,3,37.75,37.75,0,0,0-2.27,5.26A15.35,15.35,0,0,0,4.08,201.9Zm0,5-.38,1.27,1.86-.81Zm4.21.85c-.65-.54-1-.6-1.49,0ZM34.09,210c-.18-.15-.31-.33-.46-.35s-.24.22-.35.34a1.71,1.71,0,0,0,.44.32C33.77,210.33,33.92,210.14,34.09,210Z"/><path class="cls-1" d="M283,63.11c1.52-1.26,3-2.58,4.6-3.77.86-.65,2-1,2.82-1.66a4.5,4.5,0,0,0,1.77-4.76,2.24,2.24,0,0,1,0-1.06.79.79,0,0,1,1.27-.43,4,4,0,0,1,.88.9c1.31,1.87,2.6,3.75,3.91,5.62a8,8,0,0,0,.61.7c.42.46,1.05.85,1.24,1.39a12.08,12.08,0,0,0,2.58,3.79,58.92,58.92,0,0,1,3.77,5.32,15.87,15.87,0,0,1,3.25,8.67,7.41,7.41,0,0,1-3.12,6.59,13.88,13.88,0,0,1-1.81,1.25,5,5,0,0,1-4.22,0c-1.4-.54-2.77-1.16-4.15-1.73-1.22-.51-2.45-1-3.87-1.57-.2.89-.41,1.82-.63,2.74-.51,2.2-1.1,4.38-1.51,6.6a13.7,13.7,0,0,0,0,3.2c0,.86.21,1.71.33,2.59a3.53,3.53,0,0,1-2.71.38c-1.62-.51-3.2-1.16-4.79-1.77-.24-.1-.56-.23-.65-.43-.19-.45-.52-1.1-.33-1.41.65-1.06.46-2.2.6-3.31a60.48,60.48,0,0,1,1.62-10.08c.59-2,1-4,1.51-6a9.59,9.59,0,0,1,.89-1.74l-.31-.63c-.24,0-.43,0-.54.1-1.08.82-2.46,1.27-3.22,2.52-.26.42-1,.56-1.47.87-1.29.83-2.59,1.66-3.84,2.55a1.76,1.76,0,0,0-.55,1c-.38,1.69-.7,3.39-1.07,5.08,0,.22-.27.4-.55.79-1-1.25-2-2.35-2.85-3.47a22.19,22.19,0,0,1-2.07-2.72,15.59,15.59,0,0,0-2.14-2.83,7.26,7.26,0,0,1-1.72-2.51c-.16-.45-.84-.73-1.29-1.07a4.36,4.36,0,0,1-.86-.66,1.12,1.12,0,0,1,.92-1.88,45.24,45.24,0,0,1,5,1.11c.17,0,.29.28.32.32,1.34-.81,2.66-1.56,3.92-2.38s2.38-1.64,3.54-2.5c1.69-1.25,3.35-2.54,5-3.81,0,.2-.05.46.06.6s.47.5.69.48a.82.82,0,0,0,.5-.62c0-.2-.32-.48-.56-.57S283.26,63.05,283,63.11Zm15,.14c-1.71,1.23-3.16,2.25-4.57,3.32-1.13.84-2.19,1.78-3.34,2.61-1,.71-1,.73-.48,1.87a42.38,42.38,0,0,1,2.77,7.16c.41,1.46.77,1.74,2.32,1.87a3.57,3.57,0,0,0,2.72-.64c.82-.64,1.74-1.16,1.75-2.35a1.21,1.21,0,0,1,.23-.57,7.53,7.53,0,0,0,.75-6C299.49,68.16,298.75,65.81,298,63.25Zm-3.29-4.11-.78-.7L293.07,60Z"/><path class="cls-1" d="M154.6,33.76c.3-.6.37-1.06.64-1.22,1.55-.94,2.39-2.53,3.76-3.63.24-.19.29-.65.33-1a31.39,31.39,0,0,1,.4-4.13,37,37,0,0,0,.58-6.88c.18-3.41.23-6.84.3-10.26a1.47,1.47,0,0,0-.4-.93c-.52-.59-1.13-1.1-1.67-1.67-1-1.08-2.07-2.18-3.23-3.4a15.33,15.33,0,0,1,4.36-.51,34.46,34.46,0,0,1,5.47,0c4.22.55,8.48.27,12.69.67a25.34,25.34,0,0,1,4.76,1.32c.77.23,1.5.55,2.25.83A.67.67,0,0,1,185,3c1.56,1.2,3.39,2.22,3.37,4.5,0,1.38,0,2.76,0,4.14a2.8,2.8,0,0,1-.91,2.08c-1.06,1-1.86,2.3-3.42,2.78a6,6,0,0,0-1.36,1,10.5,10.5,0,0,1,4.27,2.48,12,12,0,0,1,3.24,4.68c.52,1.42-.25,2.65-.94,3.79a13.75,13.75,0,0,1-4.74,4.24c-2.6,1.66-5.54,1.55-8.41,1.7A70,70,0,0,1,169,34.2c-1.23-.06-2.45-.39-3.67-.42-2.56-.07-5.13,0-7.7,0Zm25.2-2.09a4.18,4.18,0,0,0,1-2.84c-.24-2.67-.72-5.26-3-7.12-.22-.19-.31-.52-.54-.71-.54-.46-1.1-1.15-1.71-1.22a9.84,9.84,0,0,1-2.21-.7,6.36,6.36,0,0,0-4-.51c0,2.83-1.13,5.52-.92,8.23Zm-10-15.89a6.91,6.91,0,0,1,1.9,0,3.67,3.67,0,0,0,3-.57,12.15,12.15,0,0,0,4.07-3.18c.83-1.06.95-1.79,0-2.69-.6-.58-1.35-1-1.91-1.62s-1.54-.58-2-1.42-1.57-.3-2.29-.71a2.42,2.42,0,0,0-.72-.31c-.69-.15-1.39-.26-2.06-.38Z"/><path class="cls-1" d="M40.54,123.17c-.23,3.43-.35,6.85-1.86,10.11a59,59,0,0,1-3.38,6.07,6.08,6.08,0,0,1-1.13,1.07,35.15,35.15,0,0,1-4.48,3.91c-2.37,1.49-4.8,3.15-8,2.56a6.22,6.22,0,0,1-3.09.24,12.57,12.57,0,0,1-7-2.77A18,18,0,0,1,5.25,135a24.57,24.57,0,0,1-.76-8.81,18.88,18.88,0,0,1,1.13-4.48,20,20,0,0,1,4.25-7.52,34.26,34.26,0,0,1,4.81-4.66,17.54,17.54,0,0,1,6.62-3,11.68,11.68,0,0,1,8.23.92,15.47,15.47,0,0,0,1.8.67A12.2,12.2,0,0,1,35,110.8a18,18,0,0,1,2,2.91c.45.61,1,1.14,1.49,1.74a2.8,2.8,0,0,1,.43.82C39.7,118.52,40.59,120.74,40.54,123.17Zm-2.91-1.44a15.24,15.24,0,0,1-1.48-2,4.93,4.93,0,0,0-2.76-2.36A19.14,19.14,0,0,0,20.91,117a8.6,8.6,0,0,0-2.45,1.1,28.45,28.45,0,0,0-6.35,6.28c-1.68,2.17-3.18,4.48-4.7,6.76-.65,1-.54,1.48.45,2A2.42,2.42,0,0,1,9.18,135c1,.53,1.75.92,2.49,1.39s1.54,1.41,2.43,1.6c1.84.4,3.68,1.18,5.62.77a28.56,28.56,0,0,0,4.49-1.2c1-.36,1.72-1.21,2.67-1.64a13,13,0,0,0,5.22-3.94,32.18,32.18,0,0,0,4.48-7.62C36.94,123.42,37.31,122.52,37.63,121.73Z"/><path class="cls-1" d="M27.14,231.25c-.31-1.4.5-2.57,1-3.67a6.32,6.32,0,0,1,2.26-2c.65-.45,2.55.1,3.27,1a12.55,12.55,0,0,1,2,3.29c.78,2.17,1.17,4.47,1.95,6.63.84,2.32,1.28,4.74,2.43,7a53.79,53.79,0,0,1,2.56,6.29A55.27,55.27,0,0,0,45.87,256c1.63,3.15,4.13,5.71,6.16,8.58s4.42,5.1,6.34,7.84c1.3,1.85,3.16,3,4.75,4.51a13.19,13.19,0,0,1,3,4.07,2.61,2.61,0,0,1-.93,3c-.79.47-2.06.29-2.26,1.55-.79-.17-1.44.74-2.28.26a12.28,12.28,0,0,1-1.93-1c-1.65-1.4-3.22-2.89-4.82-4.34l-.93-.82c-.24-.2-.64-.35-.71-.59-.6-2.07-2.53-3.18-3.74-4.81s-2.7-2.87-3.76-4.47c-1.4-2.11-3.11-4-4.51-6.08-.6-.89-1.15-1.82-1.75-2.71-.48-.71-1.06-1.35-1.47-2.08s-.7-1.57-1.07-2.35c-.47-1-1-2-1.46-3-.39-.74-.88-1.44-1.2-2.2-.49-1.19-.85-2.42-1.31-3.61-.69-1.76-1.42-3.5-2.13-5.24a5,5,0,0,1-.31-.72c-.62-2.82-1.95-5.48-2-8.43A13.33,13.33,0,0,0,27.14,231.25Z"/><path class="cls-1" d="M310.94,230.69a52.22,52.22,0,0,1-1.93,8.63q-1,3-2,6.08a2,2,0,0,1-.19.43c-1.34,2.2-1.75,4.75-2.81,7a24,24,0,0,1-1.71,2.62,6.65,6.65,0,0,0-.44,1c-.47,1.07-.89,2.16-1.41,3.21a9.3,9.3,0,0,1-1,1.3c-1.05,1.45-2.08,2.93-3.14,4.38a29.68,29.68,0,0,1-2.47,3.12c-.57.58-.81,1.33-1.32,1.95-.66.82-1.54,1.38-2.17,2.16s-1.11,1.73-1.73,2.55a9.63,9.63,0,0,1-1.57,1.68,2.48,2.48,0,0,0-1.17,1.75c0,.3-.36.6-.62.84-1.13,1.07-2.22,2.18-3.43,3.15a44.55,44.55,0,0,1-4.25,3.07,2.56,2.56,0,0,1-2.88-.64,3.58,3.58,0,0,0-1.25-.82,4.4,4.4,0,0,1-1.27-.95,1.78,1.78,0,0,1-.26-2.68c.62-.93,1.35-1.79,2-2.69a20,20,0,0,1,3.79-3.31c.2-.17.49-.3.58-.5,1-2.17,3-3.56,4.4-5.45s2.95-3.85,4.43-5.76c1.29-1.66,2.62-3.3,3.86-5a23.77,23.77,0,0,0,1.52-2.64,55,55,0,0,0,3.77-7.9c1.09-3,2.19-6,3.4-8.93a32.17,32.17,0,0,0,1.73-6.52,11,11,0,0,1,2.48-4.91,5.51,5.51,0,0,1,2.54-1.54,1.27,1.27,0,0,1,1,.13c.81.63,1.84,1.22,2.22,2.06C310.25,228.73,311.38,229.84,310.94,230.69Z"/><path class="cls-1" d="M100.9,17.33c1.56,3.44,2.41,7,4.63,9.9,3.85-.51,6.9-2.83,10.72-3.82a7,7,0,0,1,.7.94c.51.9,1,1.83,1.44,2.75s.34,1.46-.7,1.79a14.52,14.52,0,0,1-2.21.31l-8.67,1.24c2,3.83,3.11,7.93,5.83,11.53,1.19-.79,2.43-1.57,3.61-2.42,1.67-1.19,3.31-2.43,5-3.65a2.64,2.64,0,0,1,.67-.43,2.67,2.67,0,0,0,1.79-1.61,4.45,4.45,0,0,1,.53-.84c.55.38,1,.51,1.11.78.78,1.64,1.57,3.27,2.2,5,.39,1,.16,1.19-.88,1.57-2.21.8-4.38,1.67-6.58,2.48-1.09.39-2.26.61-3.32,1.06-1.26.54-2.43,1.27-3.65,1.89s-2.55,1.29-3.83,1.91a3.7,3.7,0,0,1-1,.39,7.34,7.34,0,0,0-2.65,1,19.16,19.16,0,0,1-3.1,1.3c-.38.13-.89-.09-1.33-.15a4,4,0,0,1,.29-1.09,14.25,14.25,0,0,0,1.43-2.2,4.67,4.67,0,0,0,.24-2.53,17.71,17.71,0,0,0-1.36-3.61c-.58-1.21-1.32-2.35-2-3.53-1.16-2.15-2.16-4.38-3.46-6.44-1.5-2.37-2.09-5.07-3.32-7.53a2.47,2.47,0,0,0-1.81-1.5,27,27,0,0,1-3.87-1.54c2.25-.52,3.59-2.39,5.86-2.73a10.38,10.38,0,0,0,3-1.35,29.27,29.27,0,0,1,8.5-3.32,1.77,1.77,0,0,0,.46-.15c2.35-1.21,5.06-1.65,7.29-3.15,1.06-.71,1.67-.46,2.21.74A26.53,26.53,0,0,1,116,13.85c.34,1.2-.3,1.82-1.57,1.9s-2.46.24-3.68.35c-1,.09-2,.18-3,.23A41.7,41.7,0,0,0,100.9,17.33Z"/><path class="cls-1" d="M233.66,12.53c1.94.92,3.87,1.86,5.82,2.74s4,1.71,6,2.57a6.51,6.51,0,0,1,.64.43c1.84,1.13,3.68,2.24,5.46,3.46a48.45,48.45,0,0,0,6,3,4.91,4.91,0,0,1,1.09.63.94.94,0,0,1,.16,1.38c-.61.9-1.19,1.82-1.72,2.76a2,2,0,0,1-1.9,1.2c-.9,0-1.23-.48-1.69-1.14A18,18,0,0,0,251,27q-2.58-2.51-5.21-5c-.41-.39-.88-.74-1.51-1.28-.7,1.89-2.47,3.05-2.79,5a1.22,1.22,0,0,1-.27.56A11.91,11.91,0,0,0,239,30.7a91.58,91.58,0,0,0,9.91,5.38,2.84,2.84,0,0,1-.19,1c-.63,1.18-1.33,2.34-2,3.49-.41.69-1.42.55-2.15-.23-1.28-1.37-2.55-2.75-3.92-4-1-1-2.17-1.79-3.4-2.8-2,3.7-4.57,7.08-5.91,11.27A46.7,46.7,0,0,0,238.53,47c2.38.66,4.72,1.7,7.54,1.22a8.11,8.11,0,0,1-.23,1.71,15,15,0,0,1-3.76,4.82c-1.17-.63-2.39-1.27-3.59-1.93-1.63-.89-3.27-1.77-4.86-2.73-2.15-1.3-4.67-1.83-6.85-3.06-.69-.39-1.41-.75-2.12-1.11-2-1-4-2-6-3a15.3,15.3,0,0,1-1.79-1.29,13,13,0,0,1,1.63-.54c.85-.14,1.71-.18,2.56-.32a3.36,3.36,0,0,0,2.67-2c.42-.88,1-1.67,1.49-2.54.74-1.37,1.49-2.73,2.12-4.15a31.35,31.35,0,0,1,3-5.65,2.89,2.89,0,0,0,.44-.83,26.24,26.24,0,0,1,3.57-6.71,2.42,2.42,0,0,0,.24-2.83,19.86,19.86,0,0,1-1.18-3.27Z"/><path class="cls-1" d="M65.25,75.18l.55.67c.6-1.77,2.35-1.74,3.78-2.44-.52-1.62-.47-3.49-2.44-4.37a3.56,3.56,0,0,0-1.69-.4c-2.82.28-5.66.53-8.44,1-2.3.43-4.53,1.23-6.8,1.84a14.34,14.34,0,0,1-5,.42,6.1,6.1,0,0,1-5.45-3.69,13.7,13.7,0,0,1-.08-11.08A6.31,6.31,0,0,1,41.13,55c2.23-2.19,4.3-4.58,7.19-6.05a5.09,5.09,0,0,1,2.13-.69c1,0,1.74-.9,2.79-.49.16.06.49-.35.77-.45a1.27,1.27,0,0,1,.87-.06,1,1,0,0,1,.34.78A8.35,8.35,0,0,1,55,49.71c-.4,1.92-.81,3.82-1.23,5.73a8.22,8.22,0,0,1-.37,1c-1.94-.24-3.18,1.29-4.88,1.74-.35.09-.68.26-1,.38l-6,1.92a4.1,4.1,0,0,0,2.14,2.77,8.69,8.69,0,0,0,5.29.71A11.3,11.3,0,0,0,52.2,63c1.07-.46,2.26-.66,3.38-1a74.47,74.47,0,0,1,10.64-2.42,10,10,0,0,1,5.34.94,4.47,4.47,0,0,1,2.52,3.19c.14.55.31,1.09.5,1.75l-.69,1.08c.12.14.19.31.32.36.82.29.85.8.56,1.48-.86,2-1.61,4-2.56,6A18.41,18.41,0,0,1,70.31,77a15.34,15.34,0,0,1-1,1.4c-.52.57-1.11,1.08-1.69,1.6-.23.21-.61.32-.75.57C65.94,82.28,64.19,83,62.64,84s-3.1,1.81-4.67,2.69c-.74.42-1.43.14-1.49-.68a30.12,30.12,0,0,1-.06-3.8,23.78,23.78,0,0,1,.42-3.35,1.27,1.27,0,0,1,.66-.9c2-.73,4.13-1.37,6.2-2.06A14.11,14.11,0,0,0,65.25,75.18Z"/><path class="cls-1" d="M338.49,191.8a3.64,3.64,0,0,1-1.58,1.89c-2.78,1.84-5.62,3.58-8.22,5.67-1.4,1.13-3,2.09-4.44,3.15-.94.68-1.83,1.4-2.88,2.21,1.23,1.68,3.23,2.59,4.93,3.81s3.49,2.34,5.23,3.5c2.07-.63,2.82-2.92,5.07-3.68.52,4.6-.3,8.93,0,13.22-1.05.37-1.52-.3-2-.68q-3.34-2.61-6.6-5.33c-1.65-1.38-3.22-2.83-4.83-4.25-.08-.07-.15-.19-.23-.2-2.46-.28-3.66-2.39-5.56-3.48a2.93,2.93,0,0,0-1.29-.53c-2.57,0-5.13.07-7.69,0a3.43,3.43,0,0,0-3.23,2.12,4.57,4.57,0,0,1-2,2,1.08,1.08,0,0,1-1.34-.13c.42-5.59-.23-11.07-.31-16.59.56-.42,1-.36,1.47.23.91,1.12,1.88,2.2,2.87,3.27a2.89,2.89,0,0,0,2.53,1,45.09,45.09,0,0,1,5.81-.13,5.57,5.57,0,0,0,3.63-1.4c1.65-1.19,3.05-2.68,4.83-3.74a20.49,20.49,0,0,0,1.68-1.43c.68-.49,1.42-.91,2.15-1.34.22-.14.55-.17.7-.35.43-.5.73-1,1.61-1,.33,0,.77-.52,1-.9.88-1.29,1.69-2.61,2.53-3.92.58-.91.94-1,1.53,0,.9,1.49,2.18,2.74,2.78,4.44A11.08,11.08,0,0,0,338.49,191.8Z"/><path class="cls-1" d="M320.6,254.27c-.11,1.37-.18,2.75-.34,4.13a4.65,4.65,0,0,1-.51,1.45c-1.33,2.61-2.62,5.25-4.05,7.81-.89,1.59-2,3.06-3,4.58-.5.75-1,1.51-1.53,2.22-.77,1-1.63,1.88-2.42,2.84-1.21,1.49-2.79,2.68-3.81,4.32-1.15.39-1.79,1.71-3.22,1.62-.18,0-.36.2-.55.29a1.82,1.82,0,0,1-2.63-.54,15.6,15.6,0,0,0-2.13-2.49,1.67,1.67,0,0,1-.3-2.15,13,13,0,0,1,1.84-2.47c3.17-2.7,5.36-6.08,7.66-9.42a71.05,71.05,0,0,0,5.26-9.34,46.61,46.61,0,0,1,4.61-7.86A4.28,4.28,0,0,1,317,248a1.9,1.9,0,0,1,2.28.7,7.73,7.73,0,0,1,1.26,4.05c0,.51,0,1,0,1.52Z"/><path class="cls-1" d="M17.35,254.9c-.05-2.46.1-4.09,1.08-5.63s2.66-1.89,3.84-.38a36.31,36.31,0,0,1,2.12,3.43c.27.43.57.85.81,1.29.82,1.5,1.64,3,2.42,4.5.52,1,.92,2.08,1.48,3.06a104.1,104.1,0,0,0,5.83,9.06,43,43,0,0,0,5.93,6.59,2.81,2.81,0,0,1,1,3.34.92.92,0,0,1-.31.48A6.66,6.66,0,0,0,39.3,283c-.63.93-1.21.9-2.32.65a10.2,10.2,0,0,1-3.59-1.89A17.3,17.3,0,0,1,30.7,279c-1.06-1.2-2.21-2.35-3.14-3.64a48.78,48.78,0,0,1-3.87-5.45c-.8-1.52-1.82-3-2.71-4.5-.65-1.1-1.22-2.25-1.79-3.39-.36-.74-.61-1.52-1-2.26A12,12,0,0,1,17.35,254.9Z"/><path class="cls-1" d="M256.37,100.52c-.07.73-.16,1.62-.24,2.5a1.9,1.9,0,0,0-.06.74c.57,1.86-.51,3.33-1.45,4.68a14.13,14.13,0,0,1-3.14,2.74,1.06,1.06,0,0,1-1-.1c-.84-1.85-2.68-3.27-2.62-5.52,0-1-.13-2.12,0-3.17.26-2.62-.77-4.88-2.1-7s-2.78-4-4-6.1a3,3,0,0,1,0-3.42c.85-1.28,1.73-1.92,3.3-1.47,2.94-.63,4.17,1.64,5.82,3.18.2.19.19.56.31.84s.19.61.41.78a10.17,10.17,0,0,1,2.76,4.13,19.84,19.84,0,0,1,1.27,2.89A40.69,40.69,0,0,1,256.37,100.52Z"/><path class="cls-1" d="M74.76,129.15a10.33,10.33,0,0,1,2.48-5.52c.55-.75.89-1.6,1.86-2a.84.84,0,0,0,.38-.48c.48-1.61,1.92-2.38,3.17-3.3a2.66,2.66,0,0,1,.89-.29,19.27,19.27,0,0,1,7.26-.2,5.46,5.46,0,0,1,3.64,2.32c.83,1.07.52,2-.79,2.53s-2.85,1.18-4.31,1.7a9.9,9.9,0,0,0-5.49,4.77c-.53,1-1.19,1.89-1.79,2.84-.06.08-.11.23-.18.24-1.19.24-2,1.26-3.37,1.21a2,2,0,0,1-2-1.06A30,30,0,0,0,74.76,129.15Z"/><path class="cls-1" d="M169,257.8a8.37,8.37,0,0,1,4,1.28,16.15,16.15,0,0,1,2.32,2,3.15,3.15,0,0,1,.94,2.5c-.16,3.17-1.16,4.16-4.43,5.74a7.32,7.32,0,0,1-7.15-.48,6.35,6.35,0,0,1-1.95-2.16c-.56-.88-.06-1.73.43-2.58.66-1.16,1.11-2.43,1.72-3.62a4.57,4.57,0,0,1,2.34-2.2A13.88,13.88,0,0,1,169,257.8Z"/><path class="cls-1" d="M176.77,246.6a4.69,4.69,0,0,0-.35,1.09c-.1,1.61-1.53,2.23-2.55,3.11a7.9,7.9,0,0,1-2.15,1,2.85,2.85,0,0,1-3.24-.87c-1.37-1.74-1.34-3.6.16-5.65a8.33,8.33,0,0,1,2.77-2.53c1.31-.69,2-.69,2.94.44S176,245.53,176.77,246.6Z"/><path class="cls-1" d="M163.86,320.31a3.93,3.93,0,0,1,3.62-1c2,.26,3.94.4,5.91.61.86.1,1.5.6,1.47,1.18,0,.79-.57,1.13-1.38,1.21-1.8.17-3.6.41-5.41.6-.31,0-.63-.05-.95,0C165,323.06,164.25,322.46,163.86,320.31Z"/></g></g></svg>